<svg width="109" height="107" viewBox="0 0 109 107" fill="none" xmlns="http://www.w3.org/2000/svg">
<path d="M54.5 102.542C81.5852 102.542 103.542 80.5852 103.542 53.5C103.542 26.4149 81.5852 4.45801 54.5 4.45801C27.4149 4.45801 5.45801 26.4149 5.45801 53.5C5.45801 80.5852 27.4149 102.542 54.5 102.542Z" fill="#F7F7F7"/>
<path d="M71.4101 39.2L52.2711 58.34L44.2771 50.348C43.4314 49.5643 42.315 49.1388 41.1622 49.1607C40.0095 49.1827 38.9101 49.6504 38.0948 50.4656C37.2795 51.2809 36.8118 52.3804 36.7899 53.5331C36.7679 54.6859 37.1935 55.8023 37.9771 56.648L49.1191 67.8C49.9547 68.6351 51.0878 69.1043 52.2691 69.1043C53.4505 69.1043 54.5835 68.6351 55.4191 67.8L77.7151 45.506C78.155 45.0984 78.5081 44.6062 78.7534 44.0589C78.9986 43.5116 79.1309 42.9205 79.1423 42.3209C79.1537 41.7213 79.044 41.1256 78.8198 40.5693C78.5956 40.0131 78.2614 39.5079 77.8373 39.0838C77.4133 38.6597 76.908 38.3256 76.3518 38.1014C75.7956 37.8772 75.1999 37.7675 74.6003 37.7789C74.0007 37.7903 73.4095 37.9226 72.8622 38.1678C72.3149 38.413 71.8228 38.7661 71.4151 39.206L71.4101 39.2Z" fill="url(#paint0_linear_2_1157)"/>
<path d="M103.542 49.042C102.36 49.0423 101.226 49.512 100.39 50.348C99.5536 51.1839 99.0836 52.3177 99.0831 53.5C99.0863 63.8258 95.5064 73.8328 88.9543 81.8137C82.4022 89.7945 73.2839 95.2545 63.1552 97.2623C53.0264 99.2701 42.5148 97.7011 33.4138 92.8231C24.3128 87.9451 17.1864 80.0604 13.2504 70.5141C9.31437 60.9679 8.81272 50.3517 11.831 40.4768C14.8493 30.6019 21.2005 22.0803 29.8009 16.3659C38.4014 10.6514 48.7182 8.09823 58.9912 9.14195C69.2641 10.1857 78.8567 14.7616 86.1321 22.089C86.5441 22.5061 87.0344 22.8379 87.5748 23.0653C88.1152 23.2927 88.6951 23.4112 89.2814 23.4142C89.8677 23.4171 90.4488 23.3044 90.9914 23.0825C91.5341 22.8605 92.0276 22.5337 92.4438 22.1207C92.86 21.7078 93.1906 21.2168 93.4168 20.6759C93.6429 20.135 93.7602 19.5548 93.7618 18.9685C93.7634 18.3822 93.6493 17.8013 93.4261 17.2592C93.203 16.717 92.875 16.2242 92.4611 15.809C86.2567 9.55884 78.6053 4.93697 70.186 2.35358C61.7666 -0.229805 52.8397 -0.694817 44.1975 0.999817C35.5553 2.69445 27.4651 6.49632 20.6449 12.068C13.8247 17.6397 8.48535 24.8089 5.10081 32.9394C1.71627 41.0698 0.391172 49.91 1.24312 58.6755C2.09508 67.441 5.09773 75.8606 9.98459 83.1871C14.8715 90.5136 21.4914 96.5204 29.2569 100.674C37.0224 104.829 45.6933 107.001 54.5001 107C58.6463 106.997 62.7784 106.517 66.8151 105.57C78.5398 102.795 88.9849 96.1445 96.4594 86.6945C103.934 77.2446 108 65.5486 108 53.5C108 52.3178 107.53 51.1842 106.694 50.3483C105.858 49.5124 104.724 49.0425 103.542 49.042Z" fill="url(#paint1_linear_2_1157)"/>
<defs>
<linearGradient id="paint0_linear_2_1157" x1="57.9661" y1="37.7781" x2="57.9661" y2="69.1043" gradientUnits="userSpaceOnUse">
<stop stop-color="#3E8EBC"/>
<stop offset="1" stop-color="#444BAB"/>
</linearGradient>
<linearGradient id="paint1_linear_2_1157" x1="54.4962" y1="0" x2="54.4962" y2="107" gradientUnits="userSpaceOnUse">
<stop stop-color="#3E8EBC"/>
<stop offset="1" stop-color="#444BAB"/>
</linearGradient>
</defs>
</svg>
