<svg width="262" height="43" viewBox="0 0 262 43" fill="none" xmlns="http://www.w3.org/2000/svg">
<path d="M16.414 0.945057C17.3401 0.36689 18.5147 0.366892 19.4408 0.945058L34.507 10.3508C35.3432 10.8729 35.8514 11.7891 35.8514 12.775V29.9755C35.8514 30.9614 35.3432 31.8776 34.507 32.3997L19.4408 41.8054C18.5147 42.3836 17.3401 42.3836 16.414 41.8054L1.34782 32.3997C0.511549 31.8776 0.00341797 30.9614 0.00341797 29.9755V12.775C0.00341797 11.7891 0.511549 10.8729 1.34782 10.3508L16.414 0.945057Z" fill="#444BAB"/>
<mask id="mask0_2_28" style="mask-type:alpha" maskUnits="userSpaceOnUse" x="0" y="0" width="36" height="43">
<path d="M16.4106 0.944813C17.3367 0.366646 18.5113 0.366647 19.4374 0.944814L34.5036 10.3505C35.3398 10.8726 35.848 11.7889 35.848 12.7747V29.9753C35.848 30.9611 35.3398 31.8774 34.5036 32.3995L19.4374 41.8052C18.5113 42.3834 17.3367 42.3834 16.4106 41.8052L1.3444 32.3995C0.508131 31.8774 0 30.9611 0 29.9753V12.7747C0 11.7889 0.508131 10.8726 1.3444 10.3505L16.4106 0.944813Z" fill="#C4C4C4"/>
</mask>
<g mask="url(#mask0_2_28)">
<rect x="7.67969" y="20.3452" width="3.21504" height="19.8428" fill="white"/>
<mask id="mask1_2_28" style="mask-type:alpha" maskUnits="userSpaceOnUse" x="11" y="12" width="8" height="5">
<rect x="18.2886" y="12.8604" width="3.21504" height="6.43008" transform="rotate(90 18.2886 12.8604)" fill="#CD6767"/>
</mask>
<g mask="url(#mask1_2_28)">
<path d="M11.8585 16.0754C11.8585 15.6532 11.9417 15.2351 12.1032 14.845C12.2648 14.455 12.5016 14.1006 12.8002 13.802C13.0987 13.5035 13.4531 13.2667 13.8432 13.1051C14.2333 12.9435 14.6513 12.8604 15.0735 12.8604L15.0735 16.0754L11.8585 16.0754Z" fill="white"/>
</g>
<mask id="mask2_2_28" style="mask-type:alpha" maskUnits="userSpaceOnUse" x="17" y="12" width="8" height="5">
<rect x="24.0029" y="12.8608" width="3.21504" height="6.43008" rx="0.178613" transform="rotate(90 24.0029 12.8608)" fill="#CD6767"/>
</mask>
<g mask="url(#mask2_2_28)">
<path d="M17.7515 16.0759C17.6528 16.0759 17.5723 15.9958 17.5778 15.8973C17.6216 15.1097 17.9538 14.3632 18.5145 13.8025C19.1174 13.1996 19.9352 12.8608 20.7879 12.8608C21.6406 12.8608 22.4583 13.1996 23.0613 13.8025C23.622 14.3632 23.9542 15.1097 23.998 15.8973C24.0034 15.9958 23.923 16.0759 23.8243 16.0759L20.7879 16.0759L17.7515 16.0759Z" fill="white"/>
</g>
<path d="M19.7076 24.7662C19.8063 24.7662 19.8862 24.8462 19.8862 24.9448L19.8862 27.8027C19.8862 27.9013 19.8063 27.9813 19.7076 27.9813L10.8942 27.9813L10.8942 24.7662L19.7076 24.7662Z" fill="white"/>
<path d="M24.0146 28.9355L20.7996 28.9355L20.7996 21.378C20.7996 21.2793 20.8796 21.1994 20.9782 21.1994L23.836 21.1994C23.9347 21.1994 24.0146 21.2793 24.0146 21.378L24.0146 28.9355Z" fill="white"/>
<path d="M11.8511 16.0748L15.0661 16.0748L15.0661 23.6324C15.0661 23.7311 14.9861 23.811 14.8875 23.811L12.0297 23.811C11.931 23.811 11.8511 23.7311 11.8511 23.6324L11.8511 16.0748Z" fill="white"/>
<path d="M24.9609 17.0298L24.9609 20.2448L16.1977 20.2448C16.0991 20.2448 16.0191 20.1649 16.0191 20.0662L16.0191 17.2084C16.0191 17.1098 16.0991 17.0298 16.1977 17.0298L24.9609 17.0298Z" fill="white"/>
<path d="M20.7998 28.9355L20.7998 32.1506L11.858 32.1506L11.858 29.1142C11.858 29.0155 11.9379 28.9355 12.0366 28.9355L20.7998 28.9355Z" fill="white"/>
<rect x="20.7495" y="12.8604" width="3.21504" height="5.67656" transform="rotate(90 20.7495 12.8604)" fill="white"/>
<mask id="mask3_2_28" style="mask-type:alpha" maskUnits="userSpaceOnUse" x="24" y="17" width="5" height="7">
<rect x="28.1709" y="23.4598" width="3.21504" height="6.43008" transform="rotate(-180 28.1709 23.4598)" fill="#CD6767"/>
</mask>
<g mask="url(#mask3_2_28)">
<path d="M24.9559 17.0298C25.8085 17.0298 26.6263 17.3685 27.2292 17.9714C27.8322 18.5744 28.1709 19.3921 28.1709 20.2448L24.9559 20.2448L24.9559 17.0298Z" fill="white"/>
</g>
<mask id="mask4_2_28" style="mask-type:alpha" maskUnits="userSpaceOnUse" x="24" y="22" width="5" height="8">
<rect x="28.1797" y="29.186" width="3.21504" height="6.43008" rx="0.178613" transform="rotate(-180 28.1797 29.186)" fill="#CD6767"/>
</mask>
<g mask="url(#mask4_2_28)">
<path d="M24.9646 22.9346C24.9646 22.8359 25.0447 22.7554 25.1432 22.7609C25.9308 22.8047 26.6773 23.1369 27.238 23.6976C27.841 24.3006 28.1797 25.1183 28.1797 25.971C28.1797 26.8237 27.841 27.6414 27.238 28.2444C26.6773 28.8051 25.9308 29.1373 25.1432 29.1811C25.0447 29.1866 24.9646 29.1061 24.9646 29.0074L24.9646 25.971L24.9646 22.9346Z" fill="white"/>
</g>
<rect x="28.1797" y="25.9708" width="3.21504" height="5.72679" transform="rotate(-180 28.1797 25.9708)" fill="white"/>
<path d="M11.8589 32.15H15.0739L15.0739 42.2194C15.0739 42.318 14.994 42.398 14.8953 42.398H12.0375C11.9389 42.398 11.8589 42.318 11.8589 42.2194L11.8589 32.15Z" fill="white"/>
<mask id="mask5_2_28" style="mask-type:alpha" maskUnits="userSpaceOnUse" x="7" y="17" width="4" height="7">
<rect x="7.67969" y="17.1307" width="3.21504" height="6.43008" rx="0.178613" fill="#CD6767"/>
</mask>
<g mask="url(#mask5_2_28)">
<circle cx="10.8947" cy="20.3458" r="3.21504" fill="white"/>
</g>
<mask id="mask6_2_28" style="mask-type:alpha" maskUnits="userSpaceOnUse" x="20" y="28" width="5" height="5">
<rect x="20.7998" y="32.15" width="3.21504" height="3.21504" transform="rotate(-90 20.7998 32.15)" fill="#CD6767"/>
</mask>
<g mask="url(#mask6_2_28)">
<path d="M24.0028 28.9356C24.0028 29.3578 23.9197 29.7759 23.7581 30.1659C23.5965 30.556 23.3597 30.9104 23.0612 31.209C22.7626 31.5075 22.4082 31.7443 22.0181 31.9059C21.6281 32.0675 21.21 32.1506 20.7878 32.1506L20.7878 28.9356L24.0028 28.9356Z" fill="white"/>
</g>
</g>
<path d="M55.1139 15.8719C56.3767 15.8719 57.4395 16.297 58.3022 17.1472C59.1649 17.9974 59.5962 19.0414 59.5962 20.2792C59.5962 21.517 59.1649 22.561 58.3022 23.4112C57.4395 24.2614 56.3767 24.6865 55.1139 24.6865H52.8071V29H50.219V15.8719H55.1139ZM55.1139 22.2672C55.6641 22.2672 56.1204 22.0796 56.483 21.7045C56.8456 21.3169 57.0269 20.8418 57.0269 20.2792C57.0269 19.7041 56.8456 19.229 56.483 18.8539C56.1204 18.4788 55.6641 18.2912 55.1139 18.2912H52.8071V22.2672H55.1139ZM63.3865 21.2357C63.6116 20.6355 63.9804 20.1854 64.493 19.8854C65.0182 19.5853 65.5996 19.4353 66.2372 19.4353V22.1359C65.4995 22.0484 64.8369 22.1984 64.2492 22.586C63.6741 22.9736 63.3865 23.6175 63.3865 24.5177V29H60.9672V19.6228H63.3865V21.2357ZM75.2935 27.8372C74.3308 28.7875 73.1555 29.2626 71.7677 29.2626C70.3799 29.2626 69.2046 28.7875 68.2419 27.8372C67.2917 26.8745 66.8165 25.6992 66.8165 24.3114C66.8165 22.9236 67.2917 21.7545 68.2419 20.8043C69.2046 19.8416 70.3799 19.3602 71.7677 19.3602C73.1555 19.3602 74.3308 19.8416 75.2935 20.8043C76.2563 21.7545 76.7376 22.9236 76.7376 24.3114C76.7376 25.6992 76.2563 26.8745 75.2935 27.8372ZM69.9485 26.1681C70.4361 26.6557 71.0425 26.8995 71.7677 26.8995C72.4929 26.8995 73.0993 26.6557 73.5869 26.1681C74.0745 25.6805 74.3183 25.0616 74.3183 24.3114C74.3183 23.5612 74.0745 22.9423 73.5869 22.4547C73.0993 21.9671 72.4929 21.7233 71.7677 21.7233C71.0425 21.7233 70.4361 21.9671 69.9485 22.4547C69.4734 22.9423 69.2359 23.5612 69.2359 24.3114C69.2359 25.0616 69.4734 25.6805 69.9485 26.1681ZM85.6225 19.6228H87.9856V28.5499C87.9856 30.0002 87.5042 31.1067 86.5415 31.8694C85.5913 32.6321 84.441 33.0134 83.0907 33.0134C82.0779 33.0134 81.184 32.8196 80.4088 32.4321C79.6461 32.0445 79.0585 31.4756 78.6459 30.7254L80.7089 29.5439C81.184 30.4191 82.0029 30.8567 83.1657 30.8567C83.9284 30.8567 84.5285 30.6566 84.9661 30.2565C85.4037 29.8565 85.6225 29.2876 85.6225 28.5499V27.5372C84.9099 28.4874 83.9096 28.9625 82.6218 28.9625C81.2965 28.9625 80.1837 28.4999 79.2835 27.5747C78.3958 26.6369 77.952 25.4992 77.952 24.1614C77.952 22.8361 78.4021 21.7045 79.3023 20.7668C80.2025 19.8291 81.309 19.3602 82.6218 19.3602C83.9096 19.3602 84.9099 19.8353 85.6225 20.7856V19.6228ZM81.1027 26.018C81.6028 26.4932 82.2342 26.7307 82.9969 26.7307C83.7596 26.7307 84.3847 26.4932 84.8723 26.018C85.3725 25.5304 85.6225 24.9115 85.6225 24.1614C85.6225 23.4237 85.3725 22.8173 84.8723 22.3422C84.3847 21.8546 83.7596 21.6108 82.9969 21.6108C82.2342 21.6108 81.6028 21.8546 81.1027 22.3422C80.6151 22.8173 80.3713 23.4237 80.3713 24.1614C80.3713 24.9115 80.6151 25.5304 81.1027 26.018ZM92.5987 21.2357C92.8238 20.6355 93.1926 20.1854 93.7052 19.8854C94.2304 19.5853 94.8117 19.4353 95.4494 19.4353V22.1359C94.7117 22.0484 94.0491 22.1984 93.4614 22.586C92.8863 22.9736 92.5987 23.6175 92.5987 24.5177V29H90.1794V19.6228H92.5987V21.2357ZM103.643 19.6228H106.062V29H103.643V27.8935C102.918 28.8062 101.899 29.2626 100.586 29.2626C99.3358 29.2626 98.2605 28.7875 97.3603 27.8372C96.4726 26.8745 96.0287 25.6992 96.0287 24.3114C96.0287 22.9236 96.4726 21.7545 97.3603 20.8043C98.2605 19.8416 99.3358 19.3602 100.586 19.3602C101.899 19.3602 102.918 19.8166 103.643 20.7293V19.6228ZM99.1795 26.2243C99.6671 26.712 100.286 26.9558 101.036 26.9558C101.786 26.9558 102.405 26.712 102.893 26.2243C103.393 25.7242 103.643 25.0866 103.643 24.3114C103.643 23.5362 103.393 22.9048 102.893 22.4172C102.405 21.9171 101.786 21.667 101.036 21.667C100.286 21.667 99.6671 21.9171 99.1795 22.4172C98.6918 22.9048 98.448 23.5362 98.448 24.3114C98.448 25.0866 98.6918 25.7242 99.1795 26.2243ZM118.627 19.3602C119.703 19.3602 120.559 19.7103 121.197 20.4105C121.847 21.1106 122.172 22.0484 122.172 23.2236V29H119.753V23.3924C119.753 22.8298 119.615 22.3922 119.34 22.0796C119.065 21.7671 118.677 21.6108 118.177 21.6108C117.627 21.6108 117.196 21.7921 116.883 22.1546C116.583 22.5172 116.433 23.0423 116.433 23.73V29H114.014V23.3924C114.014 22.8298 113.876 22.3922 113.601 22.0796C113.326 21.7671 112.939 21.6108 112.438 21.6108C111.901 21.6108 111.469 21.7921 111.144 22.1546C110.832 22.5172 110.675 23.0423 110.675 23.73V29H108.256V19.6228H110.675V20.6168C111.238 19.7791 112.107 19.3602 113.282 19.3602C114.433 19.3602 115.283 19.8103 115.833 20.7106C116.458 19.8103 117.39 19.3602 118.627 19.3602ZM134.598 19.3602C135.673 19.3602 136.53 19.7103 137.167 20.4105C137.817 21.1106 138.142 22.0484 138.142 23.2236V29H135.723V23.3924C135.723 22.8298 135.586 22.3922 135.311 22.0796C135.035 21.7671 134.648 21.6108 134.148 21.6108C133.598 21.6108 133.166 21.7921 132.854 22.1546C132.554 22.5172 132.404 23.0423 132.404 23.73V29H129.984V23.3924C129.984 22.8298 129.847 22.3922 129.572 22.0796C129.297 21.7671 128.909 21.6108 128.409 21.6108C127.871 21.6108 127.44 21.7921 127.115 22.1546C126.802 22.5172 126.646 23.0423 126.646 23.73V29H124.227V19.6228H126.646V20.6168C127.209 19.7791 128.078 19.3602 129.253 19.3602C130.403 19.3602 131.253 19.8103 131.803 20.7106C132.429 19.8103 133.36 19.3602 134.598 19.3602ZM141.398 18.4975C140.997 18.4975 140.647 18.3537 140.347 18.0662C140.06 17.7661 139.916 17.416 139.916 17.0159C139.916 16.6158 140.06 16.2658 140.347 15.9657C140.647 15.6656 140.997 15.5156 141.398 15.5156C141.81 15.5156 142.16 15.6656 142.448 15.9657C142.748 16.2658 142.898 16.6158 142.898 17.0159C142.898 17.416 142.748 17.7661 142.448 18.0662C142.16 18.3537 141.81 18.4975 141.398 18.4975ZM140.197 29V19.6228H142.617V29H140.197ZM150.045 19.3602C151.07 19.3602 151.914 19.7041 152.576 20.3917C153.252 21.0794 153.589 22.0296 153.589 23.2424V29H151.17V23.5425C151.17 22.9173 151.001 22.4422 150.664 22.1171C150.326 21.7796 149.876 21.6108 149.313 21.6108C148.688 21.6108 148.188 21.8046 147.813 22.1922C147.438 22.5797 147.25 23.1611 147.25 23.9363V29H144.831V19.6228H147.25V20.673C147.838 19.7978 148.769 19.3602 150.045 19.3602ZM162.838 19.6228H165.201V28.5499C165.201 30.0002 164.72 31.1067 163.757 31.8694C162.807 32.6321 161.656 33.0134 160.306 33.0134C159.293 33.0134 158.399 32.8196 157.624 32.4321C156.862 32.0445 156.274 31.4756 155.861 30.7254L157.924 29.5439C158.399 30.4191 159.218 30.8567 160.381 30.8567C161.144 30.8567 161.744 30.6566 162.182 30.2565C162.619 29.8565 162.838 29.2876 162.838 28.5499V27.5372C162.125 28.4874 161.125 28.9625 159.837 28.9625C158.512 28.9625 157.399 28.4999 156.499 27.5747C155.611 26.6369 155.167 25.4992 155.167 24.1614C155.167 22.8361 155.617 21.7045 156.518 20.7668C157.418 19.8291 158.524 19.3602 159.837 19.3602C161.125 19.3602 162.125 19.8353 162.838 20.7856V19.6228ZM158.318 26.018C158.818 26.4932 159.45 26.7307 160.212 26.7307C160.975 26.7307 161.6 26.4932 162.088 26.018C162.588 25.5304 162.838 24.9115 162.838 24.1614C162.838 23.4237 162.588 22.8173 162.088 22.3422C161.6 21.8546 160.975 21.6108 160.212 21.6108C159.45 21.6108 158.818 21.8546 158.318 22.3422C157.83 22.8173 157.587 23.4237 157.587 24.1614C157.587 24.9115 157.83 25.5304 158.318 26.018ZM177.091 15.8719C178.354 15.8719 179.416 16.297 180.279 17.1472C181.142 17.9974 181.573 19.0414 181.573 20.2792C181.573 21.517 181.142 22.561 180.279 23.4112C179.416 24.2614 178.354 24.6865 177.091 24.6865H174.784V29H172.196V15.8719H177.091ZM177.091 22.2672C177.641 22.2672 178.097 22.0796 178.46 21.7045C178.822 21.3169 179.004 20.8418 179.004 20.2792C179.004 19.7041 178.822 19.229 178.46 18.8539C178.097 18.4788 177.641 18.2912 177.091 18.2912H174.784V22.2672H177.091ZM189.65 19.6228H192.069V29H189.65V27.8935C188.924 28.8062 187.905 29.2626 186.593 29.2626C185.342 29.2626 184.267 28.7875 183.367 27.8372C182.479 26.8745 182.035 25.6992 182.035 24.3114C182.035 22.9236 182.479 21.7545 183.367 20.8043C184.267 19.8416 185.342 19.3602 186.593 19.3602C187.905 19.3602 188.924 19.8166 189.65 20.7293V19.6228ZM185.186 26.2243C185.674 26.712 186.293 26.9558 187.043 26.9558C187.793 26.9558 188.412 26.712 188.899 26.2243C189.399 25.7242 189.65 25.0866 189.65 24.3114C189.65 23.5362 189.399 22.9048 188.899 22.4172C188.412 21.9171 187.793 21.667 187.043 21.667C186.293 21.667 185.674 21.9171 185.186 22.4172C184.698 22.9048 184.455 23.5362 184.455 24.3114C184.455 25.0866 184.698 25.7242 185.186 26.2243ZM199.626 21.9483H197.507V25.8493C197.507 26.1743 197.588 26.4119 197.751 26.5619C197.914 26.712 198.151 26.7995 198.464 26.8245C198.776 26.837 199.164 26.8307 199.626 26.8057V29C197.964 29.1875 196.788 29.0313 196.101 28.5311C195.425 28.031 195.088 27.1371 195.088 25.8493V21.9483H193.456V19.6228H195.088V17.7286L197.507 16.9972V19.6228H199.626V21.9483ZM206.546 19.3602C207.571 19.3602 208.415 19.7041 209.078 20.3917C209.753 21.0794 210.091 22.0296 210.091 23.2424V29H207.671V23.5425C207.671 22.9173 207.502 22.4422 207.165 22.1171C206.827 21.7796 206.377 21.6108 205.815 21.6108C205.189 21.6108 204.689 21.8046 204.314 22.1922C203.939 22.5797 203.752 23.1611 203.752 23.9363V29H201.332V15.8719H203.752V20.673C204.339 19.7978 205.271 19.3602 206.546 19.3602ZM214.388 22.2859C214.388 22.536 214.551 22.7423 214.876 22.9048C215.213 23.0549 215.62 23.1924 216.095 23.3174C216.57 23.4299 217.045 23.58 217.52 23.7675C217.995 23.9426 218.395 24.2426 218.72 24.6677C219.058 25.0928 219.227 25.6242 219.227 26.2619C219.227 27.2246 218.864 27.9685 218.139 28.4936C217.426 29.0063 216.532 29.2626 215.457 29.2626C213.532 29.2626 212.219 28.5186 211.519 27.0308L213.619 25.8493C213.894 26.662 214.507 27.0683 215.457 27.0683C216.32 27.0683 216.751 26.7995 216.751 26.2619C216.751 26.0118 216.582 25.8118 216.245 25.6617C215.92 25.4992 215.52 25.3554 215.044 25.2304C214.569 25.1053 214.094 24.949 213.619 24.7615C213.144 24.574 212.738 24.2801 212.4 23.88C212.075 23.4674 211.912 22.9548 211.912 22.3422C211.912 21.417 212.25 20.6918 212.925 20.1667C213.613 19.629 214.463 19.3602 215.476 19.3602C216.239 19.3602 216.932 19.5353 217.558 19.8854C218.183 20.2229 218.677 20.7106 219.039 21.3482L216.976 22.4735C216.676 21.8358 216.176 21.517 215.476 21.517C215.163 21.517 214.901 21.5858 214.688 21.7233C214.488 21.8608 214.388 22.0484 214.388 22.2859ZM225.996 19.3602C227.022 19.3602 227.866 19.7041 228.528 20.3917C229.203 21.0794 229.541 22.0296 229.541 23.2424V29H227.122V23.5425C227.122 22.9173 226.953 22.4422 226.615 22.1171C226.278 21.7796 225.828 21.6108 225.265 21.6108C224.64 21.6108 224.14 21.8046 223.765 22.1922C223.389 22.5797 223.202 23.1611 223.202 23.9363V29H220.783V15.8719H223.202V20.673C223.79 19.7978 224.721 19.3602 225.996 19.3602ZM238.733 19.6228H241.153V29H238.733V27.8935C238.008 28.8062 236.989 29.2626 235.676 29.2626C234.426 29.2626 233.351 28.7875 232.451 27.8372C231.563 26.8745 231.119 25.6992 231.119 24.3114C231.119 22.9236 231.563 21.7545 232.451 20.8043C233.351 19.8416 234.426 19.3602 235.676 19.3602C236.989 19.3602 238.008 19.8166 238.733 20.7293V19.6228ZM234.27 26.2243C234.757 26.712 235.376 26.9558 236.126 26.9558C236.877 26.9558 237.496 26.712 237.983 26.2243C238.483 25.7242 238.733 25.0866 238.733 24.3114C238.733 23.5362 238.483 22.9048 237.983 22.4172C237.496 21.9171 236.877 21.667 236.126 21.667C235.376 21.667 234.757 21.9171 234.27 22.4172C233.782 22.9048 233.538 23.5362 233.538 24.3114C233.538 25.0866 233.782 25.7242 234.27 26.2243ZM243.346 29V15.3093H245.766V29H243.346ZM255.107 19.6228H257.526V29H255.107V27.8935C254.382 28.8062 253.363 29.2626 252.05 29.2626C250.8 29.2626 249.724 28.7875 248.824 27.8372C247.936 26.8745 247.493 25.6992 247.493 24.3114C247.493 22.9236 247.936 21.7545 248.824 20.8043C249.724 19.8416 250.8 19.3602 252.05 19.3602C253.363 19.3602 254.382 19.8166 255.107 20.7293V19.6228ZM250.643 26.2243C251.131 26.712 251.75 26.9558 252.5 26.9558C253.25 26.9558 253.869 26.712 254.357 26.2243C254.857 25.7242 255.107 25.0866 255.107 24.3114C255.107 23.5362 254.857 22.9048 254.357 22.4172C253.869 21.9171 253.25 21.667 252.5 21.667C251.75 21.667 251.131 21.9171 250.643 22.4172C250.156 22.9048 249.912 23.5362 249.912 24.3114C249.912 25.0866 250.156 25.7242 250.643 26.2243Z" fill="#444BAB"/>
</svg>
