<svg width="20" height="20" viewBox="0 0 20 20" fill="none" xmlns="http://www.w3.org/2000/svg">
<path d="M2.28697 2.28697C1.94315 2.63079 1.75 3.0971 1.75 3.58333V4.5C1.75 12.0937 7.90633 18.25 15.5 18.25H16.4167C16.9029 18.25 17.3692 18.0568 17.713 17.713C18.0568 17.3692 18.25 16.9029 18.25 16.4167V13.4109C18.25 13.2184 18.1895 13.0308 18.077 12.8747C17.9644 12.7186 17.8056 12.6018 17.623 12.541L13.5044 11.1678C13.2951 11.0983 13.0677 11.1065 12.864 11.191C12.6603 11.2755 12.4938 11.4307 12.3953 11.628L11.3594 13.6969C9.11492 12.6828 7.31721 10.8851 6.30308 8.64058L8.372 7.60475C8.56931 7.50617 8.72447 7.33974 8.80899 7.13601C8.89352 6.93227 8.90174 6.70489 8.83217 6.49558L7.459 2.377C7.39823 2.19454 7.28161 2.03582 7.12566 1.9233C6.96971 1.81077 6.78231 1.75015 6.59 1.75H3.58333C3.0971 1.75 2.63079 1.94315 2.28697 2.28697Z" stroke="#444BAB" stroke-width="2" stroke-linecap="round" stroke-linejoin="round"/>
</svg>
