<svg width="20" height="16" viewBox="0 0 20 16" fill="none" xmlns="http://www.w3.org/2000/svg">
<path d="M1.75 4.33337L8.9825 9.15504C9.28377 9.35604 9.63783 9.46331 10 9.46331C10.3622 9.46331 10.7162 9.35604 11.0175 9.15504L18.25 4.33337M3.58333 14.4167H16.4167C16.9029 14.4167 17.3692 14.2236 17.713 13.8797C18.0568 13.5359 18.25 13.0696 18.25 12.5834V3.41671C18.25 2.93048 18.0568 2.46416 17.713 2.12034C17.3692 1.77653 16.9029 1.58337 16.4167 1.58337H3.58333C3.0971 1.58337 2.63079 1.77653 2.28697 2.12034C1.94315 2.46416 1.75 2.93048 1.75 3.41671V12.5834C1.75 13.0696 1.94315 13.5359 2.28697 13.8797C2.63079 14.2236 3.0971 14.4167 3.58333 14.4167Z" stroke="#444BAB" stroke-width="2" stroke-linecap="round" stroke-linejoin="round"/>
</svg>
