<svg width="47" height="47" viewBox="0 0 47 47" fill="none" xmlns="http://www.w3.org/2000/svg">
<g clip-path="url(#clip0_2_172)">
<path d="M26.8964 0.0550785C26.722 0.0826187 26.0611 0.183596 25.4368 0.284571C19.8097 1.21172 14.8527 4.58985 12.4843 9.10625C12.0437 9.95078 11.3827 11.7684 11.2542 12.5119C11.1991 12.824 11.2083 12.8607 11.3552 12.8148C11.447 12.7965 11.8693 12.668 12.3007 12.5395C14.6323 11.851 16.7345 11.5572 19.4425 11.5572C22.3066 11.5572 24.5831 11.9244 27.2636 12.8148C33.4323 14.8619 38.2425 19.2314 40.3538 24.6934C40.923 26.1805 41.4003 28.4479 41.4003 29.7146V30.293H43.7687C46.3665 30.293 46.4308 30.2746 46.8255 29.6871C47.055 29.3383 47.0642 28.4938 46.8439 28.1816C46.7521 28.0531 45.9718 27.1168 45.0905 26.0979L43.5025 24.2436L43.9339 23.7111C45.4118 21.9027 46.4675 19.5895 46.8622 17.3129C47.0458 16.2297 47.0458 14.0541 46.8531 12.9342C45.88 7.25195 41.0515 2.43262 34.5798 0.688478C32.698 0.174416 31.8626 0.0734386 29.4667 0.0459003C28.2275 0.0275402 27.0708 0.0367203 26.8964 0.0550785Z" fill="white"/>
<path d="M16.4316 14.3751C12.5578 14.8708 8.75742 16.4589 5.86582 18.7997C4.81016 19.6534 3.32305 21.2599 2.58867 22.3339C1.46875 23.9862 0.752734 25.5835 0.30293 27.447C-0.0367187 28.879 -0.100977 31.3575 0.174414 32.9456C0.605859 35.5068 1.93691 38.3708 3.48828 40.1425L3.88301 40.5831L3.69941 40.7851C2.73555 41.8499 0.183594 44.815 0.100977 44.9618C0.0458984 45.0628 0 45.3657 0 45.6319C0 46.2011 0.229492 46.6234 0.660937 46.8528C0.945508 46.9997 1.68906 47.0089 11.8877 46.9814L22.8115 46.9538L23.8213 46.7427C30.449 45.329 36.168 40.5923 38.0498 34.9376C38.6006 33.2761 38.6924 32.6702 38.6924 30.5222C38.6924 28.8423 38.6648 28.4751 38.4812 27.6398C37.4072 22.848 34.0291 18.8089 29.0445 16.3763C26.9699 15.3573 24.2527 14.5771 21.9211 14.3292C20.7094 14.1915 17.6158 14.2191 16.4316 14.3751ZM11.9703 27.7775C12.4752 27.9519 13.182 28.6036 13.4482 29.1452C13.5859 29.4206 13.6318 29.7052 13.6318 30.2927C13.6318 31.2015 13.4758 31.5962 12.8975 32.1745C12.3191 32.7528 11.9244 32.9089 11.0156 32.9089C10.1068 32.9089 9.71211 32.7528 9.13379 32.1745C8.55547 31.5962 8.39941 31.2015 8.39941 30.2927C8.39941 29.439 8.57383 28.9616 9.06953 28.4292C9.74883 27.704 10.9605 27.4378 11.9703 27.7775ZM20.3238 27.7775C20.8287 27.9519 21.5355 28.6036 21.8018 29.1452C21.9395 29.4206 21.9854 29.7052 21.9854 30.2927C21.9854 31.2015 21.8293 31.5962 21.251 32.1745C20.6727 32.7528 20.2779 32.9089 19.3691 32.9089C18.4604 32.9089 18.0656 32.7528 17.4873 32.1745C16.9824 31.6788 16.7713 31.1923 16.7254 30.4579C16.6428 29.1819 17.267 28.2364 18.4971 27.7499C18.901 27.5939 19.8189 27.6122 20.3238 27.7775ZM28.6773 27.7775C29.1822 27.9519 29.8891 28.6036 30.1553 29.1452C30.293 29.4206 30.3389 29.7052 30.3389 30.2927C30.3389 31.2015 30.1828 31.5962 29.6045 32.1745C29.0262 32.7528 28.6314 32.9089 27.7227 32.9089C26.8139 32.9089 26.4191 32.7528 25.8408 32.1745C25.3359 31.6788 25.1248 31.1923 25.0789 30.4579C24.9963 29.1819 25.6205 28.2364 26.8506 27.7499C27.2545 27.5939 28.1725 27.6122 28.6773 27.7775Z" fill="white"/>
</g>
<defs>
<clipPath id="clip0_2_172">
<rect width="47" height="47" fill="white"/>
</clipPath>
</defs>
</svg>
