<svg width="49" height="39" viewBox="0 0 49 39" fill="none" xmlns="http://www.w3.org/2000/svg">
<path d="M12.157 38.258C10.345 38.258 8.73433 37.9057 7.325 37.201C6.01633 36.3957 4.85867 35.389 3.852 34.181C2.946 32.973 2.24133 31.614 1.738 30.104C1.23467 28.4933 0.983 26.8827 0.983 25.272C0.983 21.7487 1.38567 18.779 2.191 16.363C3.097 13.947 4.35533 11.833 5.966 10.021C7.57667 8.209 9.48933 6.59833 11.704 5.189C13.9187 3.67899 16.3347 2.16899 18.952 0.658993C19.6567 0.256326 20.2607 0.45766 20.764 1.26299C21.2673 2.06833 21.1667 2.72266 20.462 3.226C18.8513 4.43399 17.3413 5.64199 15.932 6.84999C14.5227 7.95733 13.3147 9.16533 12.308 10.474C11.3013 11.682 10.5967 13.041 10.194 14.551C9.892 16.061 9.99267 17.7723 10.496 19.685C10.6973 20.4903 11.0497 21.044 11.553 21.346C12.0563 21.5473 12.912 21.6983 14.12 21.799C16.4353 22.0003 18.1467 22.9063 19.254 24.517C20.462 26.027 21.066 27.9397 21.066 30.255C21.066 32.5703 20.16 34.483 18.348 35.993C16.536 37.503 14.4723 38.258 12.157 38.258ZM39.488 38.258C37.676 38.258 36.0653 37.9057 34.656 37.201C33.3473 36.3957 32.1897 35.389 31.183 34.181C30.277 32.973 29.5723 31.614 29.069 30.104C28.5657 28.4933 28.314 26.8827 28.314 25.272C28.314 21.7487 28.7167 18.779 29.522 16.363C30.428 13.947 31.6863 11.833 33.297 10.021C34.9077 8.209 36.8203 6.59833 39.035 5.189C41.2497 3.67899 43.6657 2.16899 46.283 0.658993C46.9877 0.256326 47.5917 0.45766 48.095 1.26299C48.5983 2.06833 48.4977 2.72266 47.793 3.226C46.1823 4.43399 44.6723 5.64199 43.263 6.84999C41.8537 7.95733 40.6457 9.16533 39.639 10.474C38.6323 11.682 37.9277 13.041 37.525 14.551C37.223 16.061 37.3237 17.7723 37.827 19.685C38.0283 20.4903 38.3807 21.044 38.884 21.346C39.3873 21.5473 40.243 21.6983 41.451 21.799C43.7663 22.0003 45.4777 22.9063 46.585 24.517C47.793 26.027 48.397 27.9397 48.397 30.255C48.397 32.5703 47.491 34.483 45.679 35.993C43.867 37.503 41.8033 38.258 39.488 38.258Z" fill="#848DC7" fill-opacity="0.44"/>
</svg>
