<svg width="261" height="43" viewBox="0 0 261 43" fill="none" xmlns="http://www.w3.org/2000/svg">
<path d="M16.3456 0.945059C17.2717 0.366893 18.4463 0.366892 19.3724 0.945058L34.3701 10.3081C35.2064 10.8302 35.7146 11.7464 35.7146 12.7323V29.855C35.7146 30.8409 35.2064 31.7572 34.3701 32.2792L19.3724 41.6423C18.4463 42.2204 17.2717 42.2204 16.3456 41.6423L1.34782 32.2792C0.511551 31.7572 0.00341797 30.8409 0.00341797 29.855V12.7323C0.00341797 11.7464 0.511549 10.8302 1.34782 10.3081L16.3456 0.945059Z" fill="white"/>
<mask id="mask0_2_256" style="mask-type:alpha" maskUnits="userSpaceOnUse" x="0" y="0" width="36" height="43">
<path d="M16.3422 0.944815C17.2683 0.366649 18.4429 0.366648 19.369 0.944814L34.3667 10.3078C35.203 10.8299 35.7111 11.7462 35.7111 12.732V29.8548C35.7111 30.8407 35.203 31.7569 34.3667 32.279L19.369 41.642C18.4429 42.2202 17.2683 42.2202 16.3422 41.642L1.34441 32.279C0.508133 31.7569 0 30.8407 0 29.8548V12.732C0 11.7462 0.508131 10.8299 1.3444 10.3078L16.3422 0.944815Z" fill="#C4C4C4"/>
</mask>
<g mask="url(#mask0_2_256)">
<rect x="7.65039" y="20.2676" width="3.20277" height="19.7671" fill="#444BAB"/>
<mask id="mask1_2_256" style="mask-type:alpha" maskUnits="userSpaceOnUse" x="11" y="12" width="8" height="5">
<rect x="18.2192" y="12.8113" width="3.20277" height="6.40554" transform="rotate(90 18.2192 12.8113)" fill="#CD6767"/>
</mask>
<g mask="url(#mask1_2_256)">
<path d="M11.8137 16.014C11.8137 15.5935 11.8965 15.177 12.0575 14.7884C12.2184 14.3998 12.4544 14.0468 12.7518 13.7493C13.0492 13.4519 13.4022 13.216 13.7908 13.0551C14.1794 12.8941 14.5959 12.8113 15.0165 12.8113L15.0165 16.014L11.8137 16.014Z" fill="#444BAB"/>
</g>
<mask id="mask2_2_256" style="mask-type:alpha" maskUnits="userSpaceOnUse" x="17" y="12" width="7" height="5">
<rect x="23.9121" y="12.8118" width="3.20277" height="6.40554" rx="0.178613" transform="rotate(90 23.9121 12.8118)" fill="#CD6767"/>
</mask>
<g mask="url(#mask2_2_256)">
<path d="M17.6852 16.0145C17.5865 16.0145 17.5061 15.9345 17.5115 15.836C17.5553 15.0516 17.8862 14.3083 18.4446 13.7498C19.0453 13.1492 19.8599 12.8118 20.7093 12.8118C21.5588 12.8118 22.3734 13.1492 22.974 13.7498C23.5325 14.3083 23.8634 15.0516 23.9071 15.836C23.9126 15.9345 23.8321 16.0145 23.7335 16.0145L20.7093 16.0145L17.6852 16.0145Z" fill="#444BAB"/>
</g>
<path d="M19.6324 24.6718C19.7311 24.6718 19.811 24.7517 19.811 24.8504L19.811 27.6959C19.811 27.7946 19.7311 27.8745 19.6324 27.8745L10.8533 27.8745L10.8533 24.6718L19.6324 24.6718Z" fill="#444BAB"/>
<path d="M23.9238 28.8251L20.7211 28.8251L20.7211 21.297C20.7211 21.1984 20.801 21.1184 20.8997 21.1184L23.7452 21.1184C23.8439 21.1184 23.9238 21.1984 23.9238 21.297L23.9238 28.8251Z" fill="#444BAB"/>
<path d="M11.8062 16.0134L15.0089 16.0134L15.0089 23.5415C15.0089 23.6401 14.929 23.7201 14.8303 23.7201L11.9848 23.7201C11.8861 23.7201 11.8062 23.6401 11.8062 23.5415L11.8062 16.0134Z" fill="#444BAB"/>
<path d="M24.8657 16.9648L24.8657 20.1676L16.1366 20.1676C16.038 20.1676 15.958 20.0876 15.958 19.989L15.958 17.1435C15.958 17.0448 16.038 16.9648 16.1366 16.9648L24.8657 16.9648Z" fill="#444BAB"/>
<path d="M20.7212 28.8251L20.7212 32.0278L11.8135 32.0278L11.8135 29.0037C11.8135 28.905 11.8935 28.8251 11.9921 28.8251L20.7212 28.8251Z" fill="#444BAB"/>
<rect x="20.6709" y="12.8113" width="3.20277" height="5.65489" transform="rotate(90 20.6709 12.8113)" fill="#444BAB"/>
<mask id="mask3_2_256" style="mask-type:alpha" maskUnits="userSpaceOnUse" x="24" y="16" width="5" height="8">
<rect x="28.064" y="23.3704" width="3.20277" height="6.40554" transform="rotate(-180 28.064 23.3704)" fill="#CD6767"/>
</mask>
<g mask="url(#mask3_2_256)">
<path d="M24.8612 16.9648C25.7106 16.9648 26.5253 17.3023 27.1259 17.9029C27.7265 18.5035 28.064 19.3182 28.064 20.1676L24.8612 20.1676L24.8612 16.9648Z" fill="#444BAB"/>
</g>
<mask id="mask4_2_256" style="mask-type:alpha" maskUnits="userSpaceOnUse" x="24" y="22" width="5" height="8">
<rect x="28.0718" y="29.0747" width="3.20277" height="6.40554" rx="0.178613" transform="rotate(-180 28.0718 29.0747)" fill="#CD6767"/>
</mask>
<g mask="url(#mask4_2_256)">
<path d="M24.869 22.8478C24.869 22.7491 24.9491 22.6686 25.0475 22.6741C25.8319 22.7179 26.5753 23.0488 27.1337 23.6072C27.7343 24.2079 28.0718 25.0225 28.0718 25.8719C28.0718 26.7214 27.7343 27.536 27.1337 28.1366C26.5753 28.6951 25.8319 29.026 25.0475 29.0697C24.9491 29.0752 24.869 28.9947 24.869 28.8961L24.869 25.8719L24.869 22.8478Z" fill="#444BAB"/>
</g>
<rect x="28.0718" y="25.8717" width="3.20277" height="5.70493" transform="rotate(-180 28.0718 25.8717)" fill="#444BAB"/>
<path d="M11.814 32.0273H15.0167L15.0167 42.0576C15.0167 42.1562 14.9368 42.2362 14.8381 42.2362H11.9926C11.8939 42.2362 11.814 42.1562 11.814 42.0576L11.814 32.0273Z" fill="#444BAB"/>
<mask id="mask5_2_256" style="mask-type:alpha" maskUnits="userSpaceOnUse" x="7" y="17" width="4" height="7">
<rect x="7.65039" y="17.0653" width="3.20277" height="6.40554" rx="0.178613" fill="#CD6767"/>
</mask>
<g mask="url(#mask5_2_256)">
<circle cx="10.8532" cy="20.2681" r="3.20277" fill="#444BAB"/>
</g>
<mask id="mask6_2_256" style="mask-type:alpha" maskUnits="userSpaceOnUse" x="20" y="28" width="4" height="5">
<rect x="20.7212" y="32.0273" width="3.20277" height="3.20277" transform="rotate(-90 20.7212 32.0273)" fill="#CD6767"/>
</mask>
<g mask="url(#mask6_2_256)">
<path d="M23.9134 28.8252C23.9134 29.2458 23.8305 29.6623 23.6696 30.0508C23.5086 30.4394 23.2727 30.7925 22.9753 31.0899C22.6779 31.3873 22.3248 31.6232 21.9362 31.7842C21.5476 31.9451 21.1312 32.028 20.7106 32.028L20.7106 28.8252L23.9134 28.8252Z" fill="#444BAB"/>
</g>
</g>
<path d="M54.9269 15.8261C56.1897 15.8261 57.2525 16.2512 58.1152 17.1014C58.9779 17.9516 59.4092 18.9956 59.4092 20.2334C59.4092 21.4712 58.9779 22.5152 58.1152 23.3654C57.2525 24.2156 56.1897 24.6407 54.9269 24.6407H52.6201V28.9542H50.032V15.8261H54.9269ZM54.9269 22.2214C55.4771 22.2214 55.9334 22.0338 56.296 21.6588C56.6586 21.2712 56.8399 20.7961 56.8399 20.2334C56.8399 19.6583 56.6586 19.1832 56.296 18.8081C55.9334 18.433 55.4771 18.2455 54.9269 18.2455H52.6201V22.2214H54.9269ZM63.1995 21.1899C63.4246 20.5898 63.7934 20.1397 64.306 19.8396C64.8312 19.5395 65.4125 19.3895 66.0502 19.3895V22.0901C65.3125 22.0026 64.6499 22.1526 64.0622 22.5402C63.4871 22.9278 63.1995 23.5717 63.1995 24.4719V28.9542H60.7802V19.577H63.1995V21.1899ZM75.1065 27.7915C74.1438 28.7417 72.9685 29.2168 71.5807 29.2168C70.1929 29.2168 69.0176 28.7417 68.0549 27.7915C67.1046 26.8287 66.6295 25.6534 66.6295 24.2656C66.6295 22.8778 67.1046 21.7088 68.0549 20.7585C69.0176 19.7958 70.1929 19.3145 71.5807 19.3145C72.9685 19.3145 74.1438 19.7958 75.1065 20.7585C76.0692 21.7088 76.5506 22.8778 76.5506 24.2656C76.5506 25.6534 76.0692 26.8287 75.1065 27.7915ZM69.7615 26.1223C70.2491 26.6099 70.8555 26.8537 71.5807 26.8537C72.3059 26.8537 72.9123 26.6099 73.3999 26.1223C73.8875 25.6347 74.1313 25.0158 74.1313 24.2656C74.1313 23.5154 73.8875 22.8966 73.3999 22.4089C72.9123 21.9213 72.3059 21.6775 71.5807 21.6775C70.8555 21.6775 70.2491 21.9213 69.7615 22.4089C69.2864 22.8966 69.0488 23.5154 69.0488 24.2656C69.0488 25.0158 69.2864 25.6347 69.7615 26.1223ZM85.4355 19.577H87.7986V28.5041C87.7986 29.9545 87.3172 31.061 86.3545 31.8236C85.4043 32.5863 84.254 32.9677 82.9037 32.9677C81.8909 32.9677 80.997 32.7739 80.2218 32.3863C79.4591 31.9987 78.8715 31.4298 78.4589 30.6796L80.5219 29.4981C80.997 30.3733 81.8159 30.8109 82.9787 30.8109C83.7414 30.8109 84.3415 30.6109 84.7791 30.2108C85.2167 29.8107 85.4355 29.2418 85.4355 28.5041V27.4914C84.7228 28.4416 83.7226 28.9167 82.4348 28.9167C81.1095 28.9167 79.9967 28.4541 79.0965 27.5289C78.2088 26.5912 77.765 25.4534 77.765 24.1156C77.765 22.7903 78.2151 21.6588 79.1153 20.721C80.0155 19.7833 81.122 19.3145 82.4348 19.3145C83.7226 19.3145 84.7228 19.7896 85.4355 20.7398V19.577ZM80.9157 25.9723C81.4158 26.4474 82.0472 26.6849 82.8099 26.6849C83.5726 26.6849 84.1977 26.4474 84.6853 25.9723C85.1855 25.4847 85.4355 24.8658 85.4355 24.1156C85.4355 23.3779 85.1855 22.7715 84.6853 22.2964C84.1977 21.8088 83.5726 21.565 82.8099 21.565C82.0472 21.565 81.4158 21.8088 80.9157 22.2964C80.4281 22.7715 80.1843 23.3779 80.1843 24.1156C80.1843 24.8658 80.4281 25.4847 80.9157 25.9723ZM92.4117 21.1899C92.6368 20.5898 93.0056 20.1397 93.5182 19.8396C94.0433 19.5395 94.6247 19.3895 95.2624 19.3895V22.0901C94.5247 22.0026 93.862 22.1526 93.2744 22.5402C92.6993 22.9278 92.4117 23.5717 92.4117 24.4719V28.9542H89.9924V19.577H92.4117V21.1899ZM103.456 19.577H105.875V28.9542H103.456V27.8477C102.731 28.7604 101.712 29.2168 100.399 29.2168C99.1487 29.2168 98.0735 28.7417 97.1733 27.7915C96.2856 26.8287 95.8417 25.6534 95.8417 24.2656C95.8417 22.8778 96.2856 21.7088 97.1733 20.7585C98.0735 19.7958 99.1487 19.3145 100.399 19.3145C101.712 19.3145 102.731 19.7708 103.456 20.6835V19.577ZM98.9925 26.1786C99.4801 26.6662 100.099 26.91 100.849 26.91C101.599 26.91 102.218 26.6662 102.706 26.1786C103.206 25.6785 103.456 25.0408 103.456 24.2656C103.456 23.4904 103.206 22.859 102.706 22.3714C102.218 21.8713 101.599 21.6213 100.849 21.6213C100.099 21.6213 99.4801 21.8713 98.9925 22.3714C98.5048 22.859 98.261 23.4904 98.261 24.2656C98.261 25.0408 98.5048 25.6785 98.9925 26.1786ZM118.44 19.3145C119.516 19.3145 120.372 19.6645 121.01 20.3647C121.66 21.0649 121.985 22.0026 121.985 23.1779V28.9542H119.566V23.3467C119.566 22.784 119.428 22.3464 119.153 22.0338C118.878 21.7213 118.49 21.565 117.99 21.565C117.44 21.565 117.009 21.7463 116.696 22.1089C116.396 22.4715 116.246 22.9966 116.246 23.6842V28.9542H113.827V23.3467C113.827 22.784 113.689 22.3464 113.414 22.0338C113.139 21.7213 112.751 21.565 112.251 21.565C111.714 21.565 111.282 21.7463 110.957 22.1089C110.645 22.4715 110.488 22.9966 110.488 23.6842V28.9542H108.069V19.577H110.488V20.571C111.051 19.7333 111.92 19.3145 113.095 19.3145C114.246 19.3145 115.096 19.7646 115.646 20.6648C116.271 19.7646 117.203 19.3145 118.44 19.3145ZM134.411 19.3145C135.486 19.3145 136.343 19.6645 136.98 20.3647C137.63 21.0649 137.955 22.0026 137.955 23.1779V28.9542H135.536V23.3467C135.536 22.784 135.399 22.3464 135.124 22.0338C134.848 21.7213 134.461 21.565 133.961 21.565C133.411 21.565 132.979 21.7463 132.667 22.1089C132.367 22.4715 132.217 22.9966 132.217 23.6842V28.9542H129.797V23.3467C129.797 22.784 129.66 22.3464 129.385 22.0338C129.11 21.7213 128.722 21.565 128.222 21.565C127.684 21.565 127.253 21.7463 126.928 22.1089C126.615 22.4715 126.459 22.9966 126.459 23.6842V28.9542H124.04V19.577H126.459V20.571C127.022 19.7333 127.891 19.3145 129.066 19.3145C130.216 19.3145 131.066 19.7646 131.616 20.6648C132.242 19.7646 133.173 19.3145 134.411 19.3145ZM141.211 18.4518C140.81 18.4518 140.46 18.308 140.16 18.0204C139.873 17.7203 139.729 17.3703 139.729 16.9702C139.729 16.5701 139.873 16.22 140.16 15.9199C140.46 15.6198 140.81 15.4698 141.211 15.4698C141.623 15.4698 141.973 15.6198 142.261 15.9199C142.561 16.22 142.711 16.5701 142.711 16.9702C142.711 17.3703 142.561 17.7203 142.261 18.0204C141.973 18.308 141.623 18.4518 141.211 18.4518ZM140.01 28.9542V19.577H142.43V28.9542H140.01ZM149.858 19.3145C150.883 19.3145 151.727 19.6583 152.389 20.346C153.065 21.0336 153.402 21.9838 153.402 23.1966V28.9542H150.983V23.4967C150.983 22.8715 150.814 22.3964 150.477 22.0714C150.139 21.7338 149.689 21.565 149.126 21.565C148.501 21.565 148.001 21.7588 147.626 22.1464C147.251 22.534 147.063 23.1154 147.063 23.8905V28.9542H144.644V19.577H147.063V20.6273C147.651 19.7521 148.582 19.3145 149.858 19.3145ZM162.651 19.577H165.014V28.5041C165.014 29.9545 164.533 31.061 163.57 31.8236C162.62 32.5863 161.469 32.9677 160.119 32.9677C159.106 32.9677 158.212 32.7739 157.437 32.3863C156.675 31.9987 156.087 31.4298 155.674 30.6796L157.737 29.4981C158.212 30.3733 159.031 30.8109 160.194 30.8109C160.957 30.8109 161.557 30.6109 161.995 30.2108C162.432 29.8107 162.651 29.2418 162.651 28.5041V27.4914C161.938 28.4416 160.938 28.9167 159.65 28.9167C158.325 28.9167 157.212 28.4541 156.312 27.5289C155.424 26.5912 154.98 25.4534 154.98 24.1156C154.98 22.7903 155.43 21.6588 156.331 20.721C157.231 19.7833 158.337 19.3145 159.65 19.3145C160.938 19.3145 161.938 19.7896 162.651 20.7398V19.577ZM158.131 25.9723C158.631 26.4474 159.263 26.6849 160.025 26.6849C160.788 26.6849 161.413 26.4474 161.901 25.9723C162.401 25.4847 162.651 24.8658 162.651 24.1156C162.651 23.3779 162.401 22.7715 161.901 22.2964C161.413 21.8088 160.788 21.565 160.025 21.565C159.263 21.565 158.631 21.8088 158.131 22.2964C157.643 22.7715 157.4 23.3779 157.4 24.1156C157.4 24.8658 157.643 25.4847 158.131 25.9723ZM176.904 15.8261C178.167 15.8261 179.229 16.2512 180.092 17.1014C180.955 17.9516 181.386 18.9956 181.386 20.2334C181.386 21.4712 180.955 22.5152 180.092 23.3654C179.229 24.2156 178.167 24.6407 176.904 24.6407H174.597V28.9542H172.009V15.8261H176.904ZM176.904 22.2214C177.454 22.2214 177.91 22.0338 178.273 21.6588C178.635 21.2712 178.817 20.7961 178.817 20.2334C178.817 19.6583 178.635 19.1832 178.273 18.8081C177.91 18.433 177.454 18.2455 176.904 18.2455H174.597V22.2214H176.904ZM189.463 19.577H191.882V28.9542H189.463V27.8477C188.737 28.7604 187.718 29.2168 186.406 29.2168C185.155 29.2168 184.08 28.7417 183.18 27.7915C182.292 26.8287 181.848 25.6534 181.848 24.2656C181.848 22.8778 182.292 21.7088 183.18 20.7585C184.08 19.7958 185.155 19.3145 186.406 19.3145C187.718 19.3145 188.737 19.7708 189.463 20.6835V19.577ZM184.999 26.1786C185.487 26.6662 186.106 26.91 186.856 26.91C187.606 26.91 188.225 26.6662 188.712 26.1786C189.212 25.6785 189.463 25.0408 189.463 24.2656C189.463 23.4904 189.212 22.859 188.712 22.3714C188.225 21.8713 187.606 21.6213 186.856 21.6213C186.106 21.6213 185.487 21.8713 184.999 22.3714C184.511 22.859 184.268 23.4904 184.268 24.2656C184.268 25.0408 184.511 25.6785 184.999 26.1786ZM199.439 21.9026H197.32V25.8035C197.32 26.1286 197.401 26.3661 197.564 26.5162C197.727 26.6662 197.964 26.7537 198.277 26.7787C198.589 26.7912 198.977 26.785 199.439 26.76V28.9542C197.777 29.1418 196.601 28.9855 195.914 28.4854C195.238 27.9852 194.901 27.0913 194.901 25.8035V21.9026H193.269V19.577H194.901V17.6828L197.32 16.9514V19.577H199.439V21.9026ZM206.359 19.3145C207.384 19.3145 208.228 19.6583 208.891 20.346C209.566 21.0336 209.904 21.9838 209.904 23.1966V28.9542H207.484V23.4967C207.484 22.8715 207.315 22.3964 206.978 22.0714C206.64 21.7338 206.19 21.565 205.628 21.565C205.002 21.565 204.502 21.7588 204.127 22.1464C203.752 22.534 203.565 23.1154 203.565 23.8905V28.9542H201.145V15.8261H203.565V20.6273C204.152 19.7521 205.084 19.3145 206.359 19.3145ZM214.201 22.2401C214.201 22.4902 214.364 22.6965 214.689 22.859C215.026 23.0091 215.433 23.1466 215.908 23.2716C216.383 23.3842 216.858 23.5342 217.333 23.7217C217.808 23.8968 218.208 24.1969 218.533 24.622C218.871 25.0471 219.04 25.5784 219.04 26.2161C219.04 27.1788 218.677 27.9227 217.952 28.4479C217.239 28.9605 216.345 29.2168 215.27 29.2168C213.345 29.2168 212.032 28.4729 211.332 26.985L213.432 25.8035C213.707 26.6162 214.32 27.0225 215.27 27.0225C216.133 27.0225 216.564 26.7537 216.564 26.2161C216.564 25.966 216.395 25.766 216.058 25.6159C215.733 25.4534 215.333 25.3096 214.857 25.1846C214.382 25.0596 213.907 24.9033 213.432 24.7157C212.957 24.5282 212.551 24.2344 212.213 23.8343C211.888 23.4217 211.725 22.9091 211.725 22.2964C211.725 21.3712 212.063 20.646 212.738 20.1209C213.426 19.5833 214.276 19.3145 215.289 19.3145C216.051 19.3145 216.745 19.4895 217.371 19.8396C217.996 20.1772 218.49 20.6648 218.852 21.3024L216.789 22.4277C216.489 21.79 215.989 21.4712 215.289 21.4712C214.976 21.4712 214.714 21.54 214.501 21.6775C214.301 21.815 214.201 22.0026 214.201 22.2401ZM225.809 19.3145C226.835 19.3145 227.678 19.6583 228.341 20.346C229.016 21.0336 229.354 21.9838 229.354 23.1966V28.9542H226.935V23.4967C226.935 22.8715 226.766 22.3964 226.428 22.0714C226.091 21.7338 225.641 21.565 225.078 21.565C224.453 21.565 223.953 21.7588 223.578 22.1464C223.202 22.534 223.015 23.1154 223.015 23.8905V28.9542H220.596V15.8261H223.015V20.6273C223.603 19.7521 224.534 19.3145 225.809 19.3145ZM238.546 19.577H240.966V28.9542H238.546V27.8477C237.821 28.7604 236.802 29.2168 235.489 29.2168C234.239 29.2168 233.164 28.7417 232.264 27.7915C231.376 26.8287 230.932 25.6534 230.932 24.2656C230.932 22.8778 231.376 21.7088 232.264 20.7585C233.164 19.7958 234.239 19.3145 235.489 19.3145C236.802 19.3145 237.821 19.7708 238.546 20.6835V19.577ZM234.083 26.1786C234.57 26.6662 235.189 26.91 235.939 26.91C236.69 26.91 237.309 26.6662 237.796 26.1786C238.296 25.6785 238.546 25.0408 238.546 24.2656C238.546 23.4904 238.296 22.859 237.796 22.3714C237.309 21.8713 236.69 21.6213 235.939 21.6213C235.189 21.6213 234.57 21.8713 234.083 22.3714C233.595 22.859 233.351 23.4904 233.351 24.2656C233.351 25.0408 233.595 25.6785 234.083 26.1786ZM243.159 28.9542V15.2635H245.579V28.9542H243.159ZM254.92 19.577H257.339V28.9542H254.92V27.8477C254.195 28.7604 253.176 29.2168 251.863 29.2168C250.613 29.2168 249.537 28.7417 248.637 27.7915C247.749 26.8287 247.306 25.6534 247.306 24.2656C247.306 22.8778 247.749 21.7088 248.637 20.7585C249.537 19.7958 250.613 19.3145 251.863 19.3145C253.176 19.3145 254.195 19.7708 254.92 20.6835V19.577ZM250.456 26.1786C250.944 26.6662 251.563 26.91 252.313 26.91C253.063 26.91 253.682 26.6662 254.17 26.1786C254.67 25.6785 254.92 25.0408 254.92 24.2656C254.92 23.4904 254.67 22.859 254.17 22.3714C253.682 21.8713 253.063 21.6213 252.313 21.6213C251.563 21.6213 250.944 21.8713 250.456 22.3714C249.969 22.859 249.725 23.4904 249.725 24.2656C249.725 25.0408 249.969 25.6785 250.456 26.1786Z" fill="white"/>
</svg>
