<svg width="60" height="60" viewBox="0 0 60 60" fill="none" xmlns="http://www.w3.org/2000/svg">
<rect width="60" height="60" fill="#F5F5F5"/>
<g clip-path="url(#clip0_0_1)">
<rect width="1440" height="3682" transform="translate(-1095 -3274)" fill="white"/>
<g filter="url(#filter0_i_0_1)">
<rect x="-1091" y="-205" width="1441" height="467" fill="white"/>
</g>
<rect x="-1090.5" y="-204.5" width="1440" height="466" stroke="#EEF0FF"/>
<g filter="url(#filter1_i_0_1)">
<rect x="-1091" y="-205" width="1441" height="519" fill="white"/>
</g>
<rect width="60" height="60" rx="12" fill="#FAFAFB"/>
<path d="M21.0352 15.123C18.7969 15.5918 16.9453 16.9629 15.8848 18.9375C15.4805 19.6816 15.2168 20.4551 15.0586 21.3516C15.0234 21.5801 15 24.5801 15 30.0176C15 38.1855 15 38.3438 15.123 38.9238C15.4453 40.5176 16.2012 41.8945 17.3438 42.9668C18.3984 43.957 19.6172 44.584 21.0762 44.877C21.6562 45 21.8145 45 30 45C38.1855 45 38.3438 45 38.9238 44.877C40.5176 44.5547 41.8945 43.7988 42.9668 42.6562C43.957 41.6016 44.584 40.3828 44.877 38.9238C45 38.3438 45 38.1855 45 30.0176C45 24.5801 44.9766 21.5801 44.9414 21.3516C44.5195 18.9199 43.0898 16.9336 40.9629 15.832C40.2832 15.4805 39.7207 15.2812 38.9238 15.123C38.3438 15 38.1973 15 29.959 15.0059C21.8379 15.0059 21.5742 15.0117 21.0352 15.123ZM38.7012 17.6836C40.541 18.1992 41.8359 19.5059 42.3164 21.3281L42.4512 21.8262V30V38.1738L42.3164 38.6719C41.8301 40.5059 40.5059 41.8301 38.6719 42.3164L38.1738 42.4512H30H21.8262L21.3281 42.3164C19.4941 41.8301 18.1699 40.5059 17.6836 38.6719L17.5488 38.1738V30V21.8262L17.6836 21.3281C18.2051 19.3535 19.6992 17.9707 21.6973 17.6074C22.0371 17.543 23.748 17.5312 30.1758 17.5371L38.2324 17.5488L38.7012 17.6836Z" fill="#8A8A8D"/>
<path d="M37.4355 20.1153C37.248 20.1915 37.037 20.3086 36.955 20.3731C36.0351 21.0938 35.9882 22.5001 36.8554 23.2852C37.1542 23.5547 37.3417 23.6485 37.7694 23.7305C38.6249 23.9004 39.4628 23.4727 39.8378 22.6817C40.0546 22.2188 40.0546 21.4922 39.8495 21.0645C39.662 20.6954 39.3046 20.3379 38.9355 20.1563C38.5077 19.9454 37.8749 19.9278 37.4355 20.1153Z" fill="#8A8A8D"/>
<path d="M28.6699 22.588C27.5977 22.7872 26.3613 23.3204 25.5059 23.9591C24.9316 24.3868 24.1348 25.213 23.7773 25.7521C23.1855 26.6486 22.7637 27.6974 22.5879 28.6935C22.4766 29.3615 22.4766 30.6388 22.5879 31.3068C22.8457 32.7599 23.5313 34.1193 24.5508 35.1798C25.6758 36.3517 27.1289 37.1368 28.6934 37.4122C29.3613 37.5236 30.6387 37.5236 31.3066 37.4122C34.3945 36.8673 36.8672 34.3947 37.4121 31.3068C37.5234 30.6388 37.5234 29.3615 37.4121 28.6935C37.2363 27.6915 36.8145 26.6486 36.2168 25.7521C35.8652 25.213 35.0625 24.381 34.5059 23.965C33.6211 23.3087 32.3965 22.7814 31.3066 22.588C30.6797 22.4825 29.2676 22.4825 28.6699 22.588ZM31.2012 25.1954C32.9766 25.6525 34.3301 27.0001 34.8105 28.799C34.9102 29.1622 34.9395 29.4376 34.9395 30.0001C34.9395 30.5626 34.9102 30.838 34.8105 31.2013C34.3301 33.0001 33 34.3243 31.2012 34.8107C30.5391 34.9923 29.4609 34.9923 28.7988 34.8107C27 34.3243 25.6699 33.0001 25.1895 31.2013C25.0137 30.545 25.0137 29.4552 25.1895 28.799C25.9043 26.1212 28.5762 24.5216 31.2012 25.1954Z" fill="#8A8A8D"/>
</g>
<defs>
<filter id="filter0_i_0_1" x="-1091" y="-205" width="1441" height="472" filterUnits="userSpaceOnUse" color-interpolation-filters="sRGB">
<feFlood flood-opacity="0" result="BackgroundImageFix"/>
<feBlend mode="normal" in="SourceGraphic" in2="BackgroundImageFix" result="shape"/>
<feColorMatrix in="SourceAlpha" type="matrix" values="0 0 0 0 0 0 0 0 0 0 0 0 0 0 0 0 0 0 127 0" result="hardAlpha"/>
<feOffset dy="6"/>
<feGaussianBlur stdDeviation="2.5"/>
<feComposite in2="hardAlpha" operator="arithmetic" k2="-1" k3="1"/>
<feColorMatrix type="matrix" values="0 0 0 0 0.920833 0 0 0 0 0.927431 0 0 0 0 1 0 0 0 1 0"/>
<feBlend mode="normal" in2="shape" result="effect1_innerShadow_0_1"/>
</filter>
<filter id="filter1_i_0_1" x="-1091" y="-205" width="1441" height="524" filterUnits="userSpaceOnUse" color-interpolation-filters="sRGB">
<feFlood flood-opacity="0" result="BackgroundImageFix"/>
<feBlend mode="normal" in="SourceGraphic" in2="BackgroundImageFix" result="shape"/>
<feColorMatrix in="SourceAlpha" type="matrix" values="0 0 0 0 0 0 0 0 0 0 0 0 0 0 0 0 0 0 127 0" result="hardAlpha"/>
<feOffset dy="6"/>
<feGaussianBlur stdDeviation="2.5"/>
<feComposite in2="hardAlpha" operator="arithmetic" k2="-1" k3="1"/>
<feColorMatrix type="matrix" values="0 0 0 0 0.920833 0 0 0 0 0.927431 0 0 0 0 1 0 0 0 1 0"/>
<feBlend mode="normal" in2="shape" result="effect1_innerShadow_0_1"/>
</filter>
<clipPath id="clip0_0_1">
<rect width="1440" height="3682" fill="white" transform="translate(-1095 -3274)"/>
</clipPath>
</defs>
</svg>
